<svg width="55" height="20" viewBox="0 0 55 20" fill="none" xmlns="http://www.w3.org/2000/svg">
<g clip-path="url(#clip0_9_2253)">
<mask id="mask0_9_2253" style="mask-type:luminance" maskUnits="userSpaceOnUse" x="0" y="0" width="55" height="20">
<path d="M54.737 0H0V20H54.737V0Z" fill="white"/>
</mask>
<g mask="url(#mask0_9_2253)">
<path d="M0.874048 18.8944C1.47413 18.124 1.77417 16.9936 1.77417 15.5032V8.99069C1.77417 8.71481 1.594 8.53875 1.31169 8.53875H0.539965C-0.179988 8.53875 -0.179988 6.7115 0.539965 6.66156L1.33652 6.61169C1.62025 6.586 1.77417 6.43562 1.799 6.15832C2.00469 3.37169 3.24103 0 8.35587 0C11.5173 0 13.9453 1.84251 14.1474 3.05421C14.2368 3.74394 11.6216 4.61042 10.4179 4.05656C9.90009 2.42617 9.98944 1.81824 8.48218 1.81824C6.262 1.81824 6.03998 4.03438 5.91089 6.19437C5.88606 6.49594 6.06552 6.672 6.37478 6.64631L14.0084 6.66156C14.4198 6.66156 14.9334 6.63594 14.9334 7.89269V15.5026C14.9334 17.7381 14.7206 17.7381 15.6207 18.8937C15.903 19.2451 15.8257 19.7477 15.2611 19.7477H10.4945C9.92913 19.7477 9.85181 19.2458 10.1349 18.8937C11.0349 17.7381 10.8222 17.7381 10.8222 15.5026V11.5341C10.8222 9.6 10.8222 8.51312 9.22832 8.51312H6.34995C6.06765 8.51312 5.88748 8.68919 5.88748 8.96506V15.5026C5.88748 17.7381 5.67469 17.7381 7.03728 18.8937C7.44869 19.2451 7.34515 19.7477 6.49751 19.7477H1.23367C0.668348 19.7477 0.591035 19.2458 0.874048 18.8937V18.8944Z" fill="white"/>
<path d="M17.0063 18.8943C17.9065 17.7388 17.6936 17.7388 17.6936 15.5032V11.0828C17.6936 8.94769 17.9065 8.94769 17.0836 7.91763C16.7999 7.56619 16.6977 7.1135 17.2624 6.93813L20.0315 5.95865C20.8025 5.7084 21.2906 5.93438 21.2906 6.43625V6.91388C21.2906 7.34019 21.5218 7.39007 21.8055 7.11419C22.9106 6.08412 24.4265 5.73267 25.5826 5.73267C28.6412 5.73267 30.1059 7.44069 30.1059 10.4796V16.7094C30.1059 17.9654 30.4918 18.1664 31.2373 18.0909C31.8281 18.041 32.0339 18.5685 31.6487 18.9449C31.16 19.4468 30.03 19.9999 28.7951 19.9999C27.1765 19.9999 25.994 19.1959 25.994 16.735V10.7812C25.994 9.19932 25.6855 7.94325 24.0931 7.94325C22.7823 7.94325 21.8311 9.02325 21.8055 10.8068V15.5039C21.8055 17.7394 21.5927 17.7394 22.4914 18.895C22.7738 19.2464 22.6979 19.749 22.1318 19.749H17.3666C16.8007 19.749 16.724 19.2471 17.007 18.895L17.0063 18.8943Z" fill="white"/>
<path d="M32.9426 18.8943C33.8414 17.7388 33.6285 17.7388 33.6285 15.5032V11.0828C33.6285 8.94769 33.8414 8.94769 33.0185 7.91763C32.7363 7.56619 32.6334 7.1135 33.1987 6.93813L35.9679 5.95865C36.7389 5.7084 37.2269 5.93438 37.2269 6.43625V6.91388C37.2269 7.34019 37.4581 7.39007 37.7404 7.11419C38.8462 6.08412 40.3628 5.73267 41.519 5.73267C44.5775 5.73267 46.0422 7.44069 46.0422 10.4796V16.7094C46.0422 17.9654 46.4281 18.1664 47.1736 18.0909C47.7645 18.041 47.9702 18.5685 47.585 18.9449C47.0963 19.4468 45.9649 19.9999 44.7328 19.9999C43.1128 19.9999 41.9303 19.1959 41.9303 16.735V10.7812C41.9303 9.19932 41.6218 7.94325 40.0294 7.94325C38.7186 7.94325 37.7674 9.02325 37.7411 10.8068V15.5039C37.7411 17.7394 37.5284 17.7394 38.4285 18.895C38.7108 19.2464 38.6349 19.749 38.0689 19.749H33.3037C32.7377 19.749 32.661 19.2471 32.944 18.895L32.9426 18.8943Z" fill="white"/>
<path d="M49.0923 18.8944C49.991 17.7388 49.7782 17.7388 49.7782 15.5033V11.0073C49.7782 8.82234 49.991 8.82234 49.3746 7.81791C49.1433 7.41584 49.066 6.88834 49.6569 6.73791L52.5799 5.90884C53.351 5.70851 53.8901 5.85893 53.8901 7.11428V15.5033C53.8901 17.7388 53.6773 17.7388 54.5774 18.8944C54.8597 19.2458 54.7838 19.7484 54.2178 19.7484H49.4526C48.8866 19.7484 48.81 19.2466 49.093 18.8944H49.0923Z" fill="white"/>
<path d="M12.2539 5.33202C13.3218 5.33202 14.1875 4.486 14.1875 3.44238C14.1875 2.39875 13.3218 1.55273 12.2539 1.55273C11.186 1.55273 10.3203 2.39875 10.3203 3.44238C10.3203 4.486 11.186 5.33202 12.2539 5.33202Z" fill="white"/>
<path d="M51.7303 4.54112C50.2713 4.54112 49.2279 3.64759 49.23 2.40469C49.2321 1.17774 50.3032 0.284219 51.7601 0.292538C53.1439 0.300856 54.2221 1.21726 54.2349 2.39153C54.2469 3.61709 53.1688 4.54112 51.731 4.54112H51.7303Z" fill="white"/>
</g>
</g>
<defs>
<clipPath id="clip0_9_2253">
<rect width="55" height="20" fill="white"/>
</clipPath>
</defs>
</svg>
