<svg
xmlns="http://www.w3.org/2000/svg"
viewBox="0 0 512 512"
width="512"
height="512"
preserveAspectRatio="xMidYMid meet"
>
<defs>
    <clipPath id="__lottie_element_62">
        <rect width="512" height="512" x="0" y="0"></rect>
    </clipPath>
    <clipPath id="__lottie_element_85">
        <path d="M0,0 L1920,0 L1920,1080 L0,1080z"></path>
    </clipPath>
    <filter
        id="__lottie_element_90"
        x="0%"
        y="0%"
        width="100%"
        height="100%"
    >
        <feColorMatrix
            type="matrix"
            color-interpolation-filters="sRGB"
            values="0 0 0 0 1 0 0 0 0 0 0 0 0 0 0 0 0 0 1 0"
            result="filter_result_0"
        ></feColorMatrix>
        <feGaussianBlur
            in="SourceAlpha"
            result="filter_result_1_drop_shadow_1"
            stdDeviation="0"
        ></feGaussianBlur>
        <feOffset
            dx="3.5355339059327378"
            dy="3.5355339059327373"
            in="filter_result_1_drop_shadow_1"
            result="filter_result_1_drop_shadow_2"
        ></feOffset>
        <feFlood
            flood-color="#000000"
            flood-opacity="0.5"
            result="filter_result_1_drop_shadow_3"
        ></feFlood>
        <feComposite
            in="filter_result_1_drop_shadow_3"
            in2="filter_result_1_drop_shadow_2"
            operator="in"
            result="filter_result_1_drop_shadow_4"
        ></feComposite>
        <feMerge result="filter_result_1">
            <feMergeNode in="filter_result_1_drop_shadow_4"></feMergeNode>
            <feMergeNode in="filter_result_0"></feMergeNode>
        </feMerge>
    </filter>
</defs>
<g clip-path="url(#__lottie_element_62)">
    <g
        clip-path="url(#__lottie_element_85)"
        transform="matrix(0.6800000071525574,0,0,0.6800000071525574,-386.8769836425781,-108.64300537109375)"
        opacity="1"
    >
        <g
            filter="url(#__lottie_element_90)"
            transform="matrix(1,0,0,1,940,522)"
            opacity="1"
        >
            <path
                stroke-linecap="round"
                stroke-linejoin="round"
                fill-opacity="0"
                stroke="rgb(255,255,255)"
                stroke-opacity="1"
                stroke-width="1.4977798080076141"
                d=" M244.89,-208.21 C245.15,-208.47 245.28,-208.6 245.28,-208.6 M346.27,17.63 C346.65,17.63 346.85,17.63 346.85,17.63 M254.32,250.01 C254.6,250.28 254.74,250.43 254.74,250.43 M22.08,350.65 C22.08,351.05 22.08,351.26 22.08,351.26 M-223.56,258.74 C-223.86,259.03 -224.01,259.18 -224.01,259.18 M-335.39,18.01 C-335.82,18.01 -336.04,18.01 -336.04,18.01 M-220.45,-226.24 C-220.73,-226.53 -220.88,-226.67 -220.88,-226.67 M20.48,-322.17 C20.48,-322.57 20.48,-322.78 20.48,-322.78"
            ></path>
            <g
                opacity="1"
                transform="matrix(1.8510500192642212,0,0,1.8510500192642212,-19.41002655029297,-13.969152450561523)"
            >
                <g
                    opacity="1"
                    transform="matrix(1,0,0,1,0,0)"
                ></g>
                <g
                    opacity="1"
                    transform="matrix(1,0,0,1,0,0)"
                ></g>
                <g
                    opacity="1"
                    transform="matrix(1,0,0,1,0,0)"
                ></g>
                <g
                    opacity="1"
                    transform="matrix(1,0,0,1,0,0)"
                ></g>
                <g
                    opacity="1"
                    transform="matrix(1,0,0,1,0,0)"
                ></g>
                <g
                    opacity="1"
                    transform="matrix(1,0,0,1,0,0)"
                ></g>
                <g
                    opacity="1"
                    transform="matrix(1,0,0,1,0,0)"
                ></g>
                <g
                    opacity="1"
                    transform="matrix(1,0,0,1,0,0)"
                ></g>
            </g>
        </g>
    </g>
    <g
        transform="matrix(3.00051212310791,-0.42169448733329773,0.42169448733329773,3.00051212310791,101.28546142578125,162.1158905029297)"
        opacity="1"
    >
        <g
            opacity="1"
            transform="matrix(1,0,0,1,56.02899932861328,58.70199966430664)"
        >
            <path
                fill="rgb(237,118,47)"
                fill-opacity="1"
                d=" M-7.109000205993652,0.29499998688697815 C-4.132999897003174,-1.6579999923706055 -0.10000000149011612,-0.164000004529953 1.0679999589920044,0.33899998664855957 C3.313999891281128,1.309000015258789 4.159999847412109,2.7829999923706055 4.751999855041504,2.4230000972747803 C6.019999980926514,1.6510000228881836 10.48799991607666,4.949999809265137 10.36299991607666,5.367000102996826 C10.039999961853027,6.439000129699707 9.170000076293945,7.7779998779296875 8.336000442504883,7.709000110626221 C7.368000030517578,7.626999855041504 7.3470001220703125,5.718999862670898 6.163000106811523,5.368000030517578 C5.119999885559082,5.059000015258789 4.275000095367432,6.276000022888184 2.803999900817871,7.21999979019165 C-0.9959999918937683,9.657999992370605 -5.675000190734863,8.142000198364258 -6.834000110626221,7.7870001792907715 C-8.260000228881836,7.349999904632568 -9.248000144958496,7.031000137329102 -9.710000038146973,6.111999988555908 C-10.574000358581543,4.392000198364258 -9.085000038146973,1.590999960899353 -7.109000205993652,0.29499998688697815z"
            ></path>
        </g>
        <g
            opacity="1"
            transform="matrix(1,0,0,1,52.380001068115234,46.73400115966797)"
        >
            <path
                fill="rgb(237,118,47)"
                fill-opacity="1"
                d=" M-10.218999862670898,-35.694000244140625 C-13.255000114440918,-34.64099884033203 -19.590999603271484,-32.987998962402344 -25.363000869750977,-35.766998291015625 C-27.927000045776367,-37.00199890136719 -30.232999801635742,-39.040000915527344 -31.729000091552734,-40.362998962402344 C-34.290000915527344,-42.62799835205078 -36.14500045776367,-44.83000183105469 -37.39500045776367,-46.48400115966797 C-37.37699890136719,-45.73500061035156 -37.34400177001953,-44.608001708984375 -37.284000396728516,-43.23400115966797 C-37.185001373291016,-40.9630012512207 -37.119998931884766,-40.53499984741211 -37.1609992980957,-39.61800003051758 C-37.26599884033203,-37.21099853515625 -37.319000244140625,-36.007999420166016 -38.09000015258789,-35.3120002746582 C-39.36800003051758,-34.15800094604492 -41.90999984741211,-34.8390007019043 -45.85200119018555,-35.89500045776367 C-46.141998291015625,-35.97200012207031 -46.685001373291016,-36.12799835205078 -47.768001556396484,-36.4370002746582 C-49.625,-36.96799850463867 -51.13399887084961,-37.41400146484375 -52.130001068115234,-37.709999084472656 C-51.82899856567383,-37.029998779296875 -51.37099838256836,-36.00600051879883 -50.790000915527344,-34.76900100708008 C-50.137001037597656,-33.380001068115234 -49.67100143432617,-32.44499969482422 -49.55099868774414,-32.20000076293945 C-48.215999603271484,-29.44300079345703 -48.10100173950195,-25.719999313354492 -48.07600021362305,-24.68199920654297 C-47.9010009765625,-17.339000701904297 -48.564998626708984,-2.8940000534057617 -47.5629997253418,3.2019999027252197 C-46.98400115966797,6.7230000495910645 -45.073001861572266,18.34600067138672 -36.319000244140625,28.301000595092773 C-25.97100067138672,40.06700134277344 -12.032999992370605,42.48400115966797 -7.735000133514404,43.16299819946289 C-4.053999900817871,43.74399948120117 15.949000358581543,46.48400115966797 31.773000717163086,32.96500015258789 C33.35900115966797,31.610000610351562 40.766998291015625,25.106000900268555 44.972999572753906,13.78600025177002 C45.12699890136719,13.373000144958496 45.3650016784668,12.729000091552734 45.645999908447266,11.88700008392334 C46.9109992980957,8.098999977111816 52.12900161743164,-7.822999954223633 43.52000045776367,-22.16699981689453 C41.95000076293945,-24.7810001373291 36.7400016784668,-32.643001556396484 26.68899917602539,-36.404998779296875 C21.128999710083008,-38.48699951171875 16.308000564575195,-38.481998443603516 14.114999771118164,-38.374000549316406 C4.103000164031982,-37.88399887084961 -2.75,-32.720001220703125 -5.176000118255615,-30.695999145507812 C-3.888000011444092,-30.841999053955078 8.677000045776367,-32.05699920654297 16.54400062561035,-22.798999786376953 C20.891000747680664,-17.683000564575195 21.517000198364258,-12.060999870300293 21.698999404907227,-10.199999809265137 C22.415000915527344,-2.828000068664551 19.909000396728516,7.933000087738037 10.565999984741211,13.168999671936035 C3.234999895095825,17.277000427246094 -5.401000022888184,15.786999702453613 -11.920000076293945,12.437000274658203 C-24.253000259399414,6.099999904632568 -26.63599967956543,-10.62399959564209 -21.47100067138672,-16.67099952697754 C-21.2810001373291,-16.893999099731445 -20.93400001525879,-17.268999099731445 -20.135000228881836,-18.152000427246094 C-18.851999282836914,-19.569000244140625 -17.878999710083008,-20.663999557495117 -17.716999053955078,-20.84600067138672 C-16.68899917602539,-21.996999740600586 -14.3100004196167,-24.663999557495117 -13.23799991607666,-26.152000427246094 C-12.032999992370605,-27.822999954223633 -10.496000289916992,-30.756000518798828 -10.218999862670898,-35.694000244140625z"
            ></path>
        </g>
        <g
            opacity="1"
            transform="matrix(1,0,0,1,35.49800109863281,53.0629997253418)"
        >
            <path
                fill="rgb(255,255,255)"
                fill-opacity="1"
                d=" M-17.3700008392334,13.831000328063965 C-8.109000205993652,29.781999588012695 13.746000289916992,36.691001892089844 21.06399917602539,30.05699920654297 C25.492000579833984,26.04199981689453 21.343000411987305,13.984000205993652 16.5049991607666,13.612000465393066 C10.888999938964844,13.180999755859375 6.579999923706055,11.572999954223633 3.2209999561309814,9.109999656677246 C-2.1470000743865967,5.173999786376953 -4.53000020980835,-0.527999997138977 -5.535999774932861,-3.2920000553131104 C-6.420000076293945,-5.718999862670898 -7.790999889373779,-9.623000144958496 -7.13100004196167,-14.604999542236328 C-6.936999797821045,-16.06599998474121 -6.357999801635742,-20.083999633789062 -3.555999994277954,-23.923999786376953 C-0.4339999854564667,-28.202999114990234 2.061000108718872,-29.499000549316406 4.663000106811523,-34.05099868774414 C5.228000164031982,-35.040000915527344 5.0879998207092285,-36.084999084472656 5.125,-36.691001892089844 C3.184000015258789,-36.15999984741211 -11.640999794006348,-31.05299949645996 -18.41699981689453,-16.405000686645508 C-19.082000732421875,-14.968000411987305 -25.492000579833984,-0.15800000727176666 -17.3700008392334,13.831000328063965z"
            ></path>
        </g>
        <g
            opacity="1"
            transform="matrix(1,0,0,1,64.98200225830078,17.21500015258789)"
        >
            <path
                fill="rgb(255,255,255)"
                fill-opacity="1"
                d=" M-17.777000427246094,-1.1770000457763672 C-16.667999267578125,-2.1080000400543213 -15.006999969482422,-3.2850000858306885 -12.928000450134277,-4.552000045776367 C-5.4019999504089355,-9.140999794006348 1.8880000114440918,-8.916999816894531 3.5899999141693115,-8.88599967956543 C7.610000133514404,-8.815999984741211 10.640999794006348,-7.980000019073486 11.875,-7.619999885559082 C13.456000328063965,-7.1579999923706055 15.506999969482422,-6.425000190734863 17.777000427246094,-5.224999904632568 C17.492000579833984,-5.2820000648498535 11.690999984741211,-6.3460001945495605 7.716000080108643,-1.9670000076293945 C5.008999824523926,1.0169999599456787 4.234000205993652,5.331999778747559 5.7170000076293945,9.140999794006348 C4.375,7.250999927520752 0.7910000085830688,2.3329999446868896 -5.951000213623047,0.14800000190734863 C-11.156999588012695,-1.5390000343322754 -15.305999755859375,-1.3730000257492065 -17.777000427246094,-1.1770000457763672z"
            ></path>
        </g>
        <g
            opacity="1"
            transform="matrix(1,0,0,1,56.23500061035156,76.06600189208984)"
        >
            <path
                fill="rgb(237,118,47)"
                fill-opacity="1"
                d=" M-8.354000091552734,5.8460001945495605 C-7.150000095367432,2.496000051498413 -3.0290000438690186,1.2630000114440918 -1.7929999828338623,0.9639999866485596 C0.5839999914169312,0.3869999945163727 2.3310000896453857,0.9020000100135803 2.5880000591278076,0.257999986410141 C3.135999917984009,-1.121000051498413 2.6389999389648438,-7.136000156402588 3.7820000648498535,-5.855999946594238 C4.804999828338623,-4.711999893188477 5.114999771118164,-4.6570000648498535 6.7179999351501465,-3.0409998893737793 C8.260000228881836,-1.4859999418258667 8.505000114440918,-1.0180000066757202 8.654999732971191,-0.609000027179718 C9.041999816894531,0.44200000166893005 9.152999877929688,2.0339999198913574 8.444999694824219,2.4800000190734863 C7.622000217437744,2.996999979019165 6.458000183105469,1.4850000143051147 5.302000045776367,1.9170000553131104 C4.2820000648498535,2.296999931335449 4.339000225067139,3.7780001163482666 3.7309999465942383,5.416999816894531 C2.1619999408721924,9.649999618530273 -2.48799991607666,11.251999855041504 -3.627000093460083,11.664999961853027 C-5.03000020980835,12.173999786376953 -6.010000228881836,12.512999534606934 -6.933000087738037,12.057000160217285 C-8.656999588012695,11.20199966430664 -9.152999877929688,8.069999694824219 -8.354000091552734,5.8460001945495605z"
            ></path>
        </g>
    </g>
    <g
        transform="matrix(2.2199900150299072,0,0,2.2199900150299072,158.30645751953125,185.1749725341797)"
        opacity="1"
    >
        <g
            opacity="1"
            transform="matrix(1,0,0,1,3.9629998207092285,13.105000495910645)"
        >
            <path
                fill="rgb(0,0,0)"
                fill-opacity="1"
                d=" M-3.7130000591278076,1.781999945640564 C-2.825000047683716,2.359999895095825 -1.843000054359436,2.680999994277954 -0.9010000228881836,2.6619999408721924 C0.010999999940395355,2.6440000534057617 0.9470000267028809,2.2200000286102295 1.6390000581741333,1.6430000066757202 C2.3340001106262207,1.0609999895095825 2.7730000019073486,0.20100000500679016 2.878999948501587,-0.7360000014305115 C2.9820001125335693,-1.6749999523162842 2.747999906539917,-2.6730000972747803 2.190000057220459,-3.5789999961853027 C3.061000108718872,-2.9590001106262207 3.63100004196167,-1.8619999885559082 3.6600000858306885,-0.7110000252723694 C3.7130000591278076,0.4410000145435333 3.188999891281128,1.6330000162124634 2.2869999408721924,2.4040000438690186 C1.3739999532699585,3.13100004196167 0.24500000476837158,3.5789999961853027 -0.9409999847412109,3.437999963760376 C-2.0910000801086426,3.302000045776367 -3.111999988555908,2.6619999408721924 -3.7130000591278076,1.781999945640564z"
            ></path>
        </g>
        <g
            opacity="1"
            transform="matrix(1,0,0,1,12.736000061035156,4.0879998207092285)"
        >
            <path
                fill="rgb(0,0,0)"
                fill-opacity="1"
                d=" M-3.4619998931884766,2.7290000915527344 C-2.4649999141693115,3.0889999866485596 -1.437999963760376,3.177000045776367 -0.5249999761581421,2.944000005722046 C0.36000001430511475,2.7190001010894775 1.1740000247955322,2.0920000076293945 1.715999960899353,1.3730000257492065 C2.260999917984009,0.6480000019073486 2.492000102996826,-0.28999999165534973 2.381999969482422,-1.2269999980926514 C2.2669999599456787,-2.1649999618530273 1.812000036239624,-3.0840001106262207 1.062999963760376,-3.8380000591278076 C2.052999973297119,-3.434000015258789 2.8559999465942383,-2.494999885559082 3.1459999084472656,-1.38100004196167 C3.4619998931884766,-0.2720000147819519 3.2230000495910645,1.0089999437332153 2.5209999084472656,1.965000033378601 C1.7979999780654907,2.88100004196167 0.8009999990463257,3.5759999752044678 -0.38499999046325684,3.7090001106262207 C-1.5360000133514404,3.8380000591278076 -2.6760001182556152,3.4489998817443848 -3.4619998931884766,2.7290000915527344z"
            ></path>
        </g>
    </g>
    <g
        transform="matrix(2.2199900150299072,0,0,2.2199900150299072,107.10149383544922,153.1935577392578)"
        opacity="1"
    >
        <g
            opacity="1"
            transform="matrix(1,0,0,1,53.209999084472656,16.327999114990234)"
        >
            <path
                fill="rgb(0,0,0)"
                fill-opacity="1"
                d=" M3.2839999198913574,-5.297999858856201 C2.072999954223633,-4.688000202178955 0.7200000286102295,-4.078999996185303 -0.7739999890327454,-3.5160000324249268 C-1.7339999675750732,-3.1540000438690186 -2.6600000858306885,-2.8450000286102295 -3.5439999103546143,-2.5810000896453857 C-2.8239998817443848,-2.313999891281128 -0.9380000233650208,-1.5069999694824219 0.5109999775886536,0.5099999904632568 C1.9470000267028809,2.506999969482422 2.11899995803833,4.53000020980835 2.1459999084472656,5.297999858856201 C2.444999933242798,4.413000106811523 2.7190001010894775,3.433000087738037 2.937000036239624,2.365000009536743 C3.5439999103546143,-0.6100000143051147 3.505000114440918,-3.252000093460083 3.2839999198913574,-5.297999858856201z"
            ></path>
        </g>
        <g
            opacity="1"
            transform="matrix(1,0,0,1,21.85700035095215,6.8429999351501465)"
        >
            <path
                fill="rgb(0,0,0)"
                fill-opacity="1"
                d=" M-4.257999897003174,-5.916999816894531 C-3.6659998893737793,-1.9730000495910645 -3.0739998817443848,1.972000002861023 -2.4830000400543213,5.916999816894531 C-2.4769999980926514,3.864000082015991 -1.3539999723434448,2.0339999198913574 0.37599998712539673,1.25600004196167 C2.194999933242798,0.43799999356269836 3.927000045776367,1.125 4.257999897003174,1.2630000114440918 C1.4199999570846558,-1.1299999952316284 -1.4199999570846558,-3.5239999294281006 -4.257999897003174,-5.916999816894531z"
            ></path>
        </g>
        <g
            opacity="1"
            transform="matrix(1,0,0,1,4.895999908447266,20.28499984741211)"
        >
            <path
                fill="rgb(0,0,0)"
                fill-opacity="1"
                d=" M-5.544000148773193,-4.210000038146973 C-3.7239999771118164,-1.4040000438690186 -1.9040000438690186,1.4040000438690186 -0.08500000089406967,4.210000038146973 C-0.17399999499320984,3.680000066757202 -0.3970000147819519,1.937999963760376 0.6290000081062317,0.2150000035762787 C2.196000099182129,-2.4170000553131104 5.26800012588501,-2.6410000324249268 5.544000148773193,-2.6559998989105225 C1.8480000495910645,-3.1740000247955322 -1.8480000495910645,-3.691999912261963 -5.544000148773193,-4.210000038146973z"
            ></path>
        </g>
    </g>
    <g
        transform="matrix(2.2199900150299072,0,0,2.2199900150299072,278.7895202636719,283.39959716796875)"
        opacity="1"
    >
        <g
            opacity="1"
            transform="matrix(1,0,0,1,13.407999992370605,11.552000045776367)"
        >
            <path
                fill="rgb(0,0,0)"
                fill-opacity="1"
                d=" M-5.354000091552734,-5.285999774932861 C-5.333000183105469,-5.829999923706055 -5.293000221252441,-6.6479997634887695 -4.9070000648498535,-7.609000205993652 C-4.328000068664551,-9.04800033569336 -2.813999891281128,-11.194999694824219 -0.6100000143051147,-11.267999649047852 C0.39800000190734863,-11.302000045776367 1.8259999752044678,-10.878999710083008 2.440999984741211,-9.795999526977539 C3.1659998893737793,-8.520000457763672 1.9299999475479126,-7.77400016784668 1.9299999475479126,-5.263999938964844 C1.9299999475479126,-4.171999931335449 2.1640000343322754,-4.11299991607666 3.9200000762939453,1.909999966621399 C4.111000061035156,2.565999984741211 4.209000110626221,2.8980000019073486 4.28000020980835,3.1689999103546143 C5.026000022888184,6.00600004196167 5.446000099182129,7.683000087738037 4.801000118255615,9.288000106811523 C4.670000076293945,9.612000465393066 4.163000106811523,10.871999740600586 3.1010000705718994,11.138999938964844 C2.4519999027252197,11.302000045776367 1.86899995803833,11.027000427246094 1.6540000438690186,10.925999641418457 C-0.5960000157356262,9.868000030517578 -1.3420000076293945,5.736000061035156 -4.048999786376953,-0.054999999701976776 C-4.578999996185303,-1.1890000104904175 -5.446000099182129,-2.9489998817443848 -5.354000091552734,-5.285999774932861z"
            ></path>
        </g>
        <g
            opacity="1"
            transform="matrix(1,0,0,1,9.345999717712402,29.523000717163086)"
        >
            <path
                fill="rgb(0,0,0)"
                fill-opacity="1"
                d=" M-9.043000221252441,-3.436000108718872 C-9.048999786376953,-3.5169999599456787 -9.053999900817871,-3.6029999256134033 -9.053999900817871,-3.6029999256134033 C-9.090999603271484,-4.324999809265137 -9.095999717712402,-6.64300012588501 -7.415999889373779,-8.057000160217285 C-6.585999965667725,-8.755000114440918 -4.933000087738037,-9.527000427246094 -3.743000030517578,-8.907999992370605 C-2.3350000381469727,-8.173999786376953 -3.1679999828338623,-6.315000057220459 -1.7309999465942383,-4.0229997634887695 C-0.953000009059906,-2.7809998989105225 -0.5609999895095825,-3.0910000801086426 3.8510000705718994,0.14499999582767487 C5.144000053405762,1.093000054359436 6.638999938964844,2.178999900817871 7.9070000648498535,3.993000030517578 C8.581000328063965,4.954999923706055 9.095999717712402,5.980999946594238 8.800000190734863,6.955999851226807 C8.800000190734863,6.955999851226807 8.633000373840332,7.507999897003174 8.194000244140625,7.9120001792907715 C6.442999839782715,9.526000022888184 -0.014999999664723873,6.329999923706055 -4.3379998207092285,3.0869998931884766 C-4.3379998207092285,3.0869998931884766 -8.791000366210938,-0.2529999911785126 -9.043000221252441,-3.436000108718872z"
            ></path>
        </g>
    </g>
    <g
        transform="matrix(2.549144983291626,-0.3582589626312256,0.3582589626312256,2.549144983291626,155.71701049804688,309.8337097167969)"
        opacity="1"
    >
        <g
            opacity="1"
            transform="matrix(1,0,0,1,20.68000030517578,7.388999938964844)"
        >
            <path
                fill="rgb(0,0,0)"
                fill-opacity="1"
                d=" M0.828000009059906,-7.047999858856201 C-0.746999979019165,-7.139999866485596 -3.4119999408721924,-2.3350000381469727 -2.5820000171661377,2.000999927520752 C-2.1480000019073486,4.265999794006348 -0.6050000190734863,7.138999938964844 1.065000057220459,7.0920000076293945 C1.7719999551773071,7.072000026702881 2.499000072479248,6.577000141143799 2.736999988555908,5.999000072479248 C3.4119999408721924,4.35099983215332 1.5989999771118164,2.931999921798706 1.6349999904632568,-0.5460000038146973 C1.6369999647140503,-0.7480000257492065 1.6929999589920044,-1.4190000295639038 1.8070000410079956,-2.759999990463257 C2.003999948501587,-5.093999862670898 2.1429998874664307,-6.146999835968018 1.4880000352859497,-6.729000091552734 C1.3990000486373901,-6.808000087738037 1.1490000486373901,-7.0289998054504395 0.828000009059906,-7.047999858856201z"
            ></path>
        </g>
    </g>
    <g
        transform="matrix(2.5504353046417236,0.3584403097629547,-0.3584403097629547,2.5504353046417236,176.6663360595703,297.3888854980469)"
        opacity="1"
    >
        <g
            opacity="1"
            transform="matrix(1,0,0,1,8.562000274658203,14.51200008392334)"
        >
            <path
                fill="rgb(0,0,0)"
                fill-opacity="1"
                d=" M-0.25999999046325684,0.9599999785423279 C2.5220000743865967,3.3529999256134033 2.572000026702881,6.150000095367432 4.830999851226807,6.359000205993652 C5.005000114440918,6.375999927520752 6.1529998779296875,6.465000152587891 6.822000026702881,5.744999885559082 C8.312000274658203,4.142000198364258 6.572999954223633,-0.5400000214576721 3.6050000190734863,-3.128000020980835 C1.7630000114440918,-4.734000205993652 -0.18199999630451202,-5.210000038146973 -1.6349999904632568,-5.565999984741211 C-3.9179999828338623,-6.125 -7.642000198364258,-6.465000152587891 -8.170999526977539,-5.210999965667725 C-8.312000274658203,-4.875999927520752 -8.206000328063965,-4.473999977111816 -7.894000053405762,-3.9200000762939453 C-6.252999782562256,-1.0049999952316284 -3.253999948501587,-1.6150000095367432 -0.25999999046325684,0.9599999785423279z"
            ></path>
        </g>
    </g>
    <g
        transform="matrix(1.7124696969985962,-1.1550753116607666,1.1550753116607666,1.7124696969985962,196.1112823486328,228.3136444091797)"
        opacity="1"
    >
        <g
            opacity="1"
            transform="matrix(1,0,0,1,4.5879998207092285,2.1740000247955322)"
        >
            <path
                fill="rgb(8,8,8)"
                fill-opacity="1"
                d=" M-3.5329999923706055,-2.546999931335449 C-2.6730000972747803,-1.1460000276565552 -1.2359999418258667,0.00800000037997961 0.2590000033378601,0.5519999861717224 C2.9709999561309814,1.8839999437332153 6.553999900817871,0.367000013589859 5.2729997634887695,1.2130000591278076 C3.953000068664551,2.0850000381469727 2.6530001163482666,2.3310000896453857 1.718000054359436,2.302000045776367 C0.7720000147819519,2.2809998989105225 -1.8170000314712524,1.3589999675750732 -3.6410000324249268,-2.4690001010894775 C-3.6410000324249268,-2.4690001010894775 -3.5329999923706055,-2.546999931335449 -3.5329999923706055,-2.546999931335449z"
            ></path>
        </g>
    </g>
</g>
</svg>